<svg viewBox="0 0 144 144" fill="none" aria-label="文件图标">
    <path
        d="M28 132H116C117.105 132 118 131.105 118 130V40H96C92.6863 40 90 37.3137 90 34V12H28C26.8954 12 26 12.8954 26 14V130C26 131.105 26.8954 132 28 132Z"
        fill="white"></path>
    <path d="M96 36.0001H116.17L94 13.8301V34.0001C94 35.1046 94.8954 36.0001 96 36.0001Z" fill="white"></path>
    <path opacity="0.64" fill-rule="evenodd" clip-rule="evenodd"
        d="M120.24 34.41L95.59 9.76C94.4634 8.63201 92.9342 7.99875 91.34 8H28C24.6863 8 22 10.6863 22 14V130C22 133.314 24.6863 136 28 136H116C119.314 136 122 133.314 122 130V38.66C122.001 37.0658 121.368 35.5366 120.24 34.41ZM116.17 36H96C94.8954 36 94 35.1046 94 34V13.83L116.17 36ZM28 132H116C117.105 132 118 131.105 118 130V40H96C92.6863 40 90 37.3137 90 34V12H28C26.8954 12 26 12.8954 26 14V130C26 131.105 26.8954 132 28 132Z"
        fill="#605E5C"></path>
</svg>