<svg viewBox="0 0 24 24" fill="none" xmlns="http://www.w3.org/2000/svg" aria-hidden="true" class="c_msg_header_icon">
      <circle cx="12" cy="12" r="11.5" fill="#fff" stroke="#44a856"></circle>
      <path d="M11 16a.5.5 0 000 1h2a.5.5 0 000-1h-2zM9.75 5A1.75 1.75 0 008 6.75v10.5c0 .966.784 1.75 1.75 1.75h4.5A1.75 1.75 0 0016 17.25V6.75A1.75 1.75 0 0014.25 5h-4.5zM9 6.75A.75.75 0 019.75 6h4.5a.75.75 0 01.75.75v10.5a.75.75 0 01-.75.75h-4.5a.75.75 0 01-.75-.75V6.75z"
            fill="#44A856"></path>
</svg>